<svg
    id="wave"
    style="transform: rotate(0deg); transition: 0.3s"
    viewBox="0 0 1440 330"
    version="1.1"
    xmlns="http://www.w3.org/2000/svg"
    >
    <defs>
        <linearGradient id="sw-gradient-0" x1="0" x2="0" y1="1" y2="0">
        <stop stop-color="rgba(0, 164, 249, 1)" offset="0%"></stop>
        <stop stop-color="rgba(175, 225, 255, 1)" offset="100%"></stop>
        </linearGradient>
    </defs>
    <path
        style="transform: translate(0, 0px); opacity: 1"
        fill="url(#sw-gradient-0)"
        d="M0,198L60,203.5C120,209,240,220,360,187C480,154,600,77,720,66C840,55,960,110,1080,110C1200,110,1320,55,1440,44C1560,33,1680,66,1800,82.5C1920,99,2040,99,2160,99C2280,99,2400,99,2520,104.5C2640,110,2760,121,2880,104.5C3000,88,3120,44,3240,44C3360,44,3480,88,3600,93.5C3720,99,3840,66,3960,71.5C4080,77,4200,121,4320,137.5C4440,154,4560,143,4680,137.5C4800,132,4920,132,5040,148.5C5160,165,5280,198,5400,187C5520,176,5640,121,5760,110C5880,99,6000,132,6120,159.5C6240,187,6360,209,6480,181.5C6600,154,6720,77,6840,66C6960,55,7080,110,7200,110C7320,110,7440,55,7560,27.5C7680,0,7800,0,7920,22C8040,44,8160,88,8280,88C8400,88,8520,44,8580,22L8640,0L8640,330L8580,330C8520,330,8400,330,8280,330C8160,330,8040,330,7920,330C7800,330,7680,330,7560,330C7440,330,7320,330,7200,330C7080,330,6960,330,6840,330C6720,330,6600,330,6480,330C6360,330,6240,330,6120,330C6000,330,5880,330,5760,330C5640,330,5520,330,5400,330C5280,330,5160,330,5040,330C4920,330,4800,330,4680,330C4560,330,4440,330,4320,330C4200,330,4080,330,3960,330C3840,330,3720,330,3600,330C3480,330,3360,330,3240,330C3120,330,3000,330,2880,330C2760,330,2640,330,2520,330C2400,330,2280,330,2160,330C2040,330,1920,330,1800,330C1680,330,1560,330,1440,330C1320,330,1200,330,1080,330C960,330,840,330,720,330C600,330,480,330,360,330C240,330,120,330,60,330L0,330Z"
    ></path>
</svg>