<svg
    id="wave"
    style="transform: rotate(180deg); transition: 0.3s"
    viewBox="0 0 1440 450"
    version="1.1"
    xmlns="http://www.w3.org/2000/svg"
>
    <defs>
    <linearGradient id="sw-gradient-0" x1="0" x2="0" y1="1" y2="0">
        <stop stop-color="rgba(0, 164, 249, 1)" offset="0%"></stop>
        <stop stop-color="rgba(175, 225, 255, 1)" offset="100%"></stop>
    </linearGradient>
    </defs>
    <path
    style="transform: translate(0, 0px); opacity: 1"
    fill="url(#sw-gradient-0)"
    d="M0,90L40,120C80,150,160,210,240,232.5C320,255,400,240,480,210C560,180,640,135,720,157.5C800,180,880,270,960,262.5C1040,255,1120,150,1200,90C1280,30,1360,15,1440,60C1520,105,1600,210,1680,240C1760,270,1840,225,1920,202.5C2000,180,2080,180,2160,172.5C2240,165,2320,150,2400,172.5C2480,195,2560,255,2640,285C2720,315,2800,315,2880,300C2960,285,3040,255,3120,232.5C3200,210,3280,195,3360,187.5C3440,180,3520,180,3600,217.5C3680,255,3760,330,3840,345C3920,360,4000,315,4080,262.5C4160,210,4240,150,4320,127.5C4400,105,4480,120,4560,157.5C4640,195,4720,255,4800,255C4880,255,4960,195,5040,142.5C5120,90,5200,45,5280,82.5C5360,120,5440,240,5520,292.5C5600,345,5680,330,5720,322.5L5760,315L5760,450L5720,450C5680,450,5600,450,5520,450C5440,450,5360,450,5280,450C5200,450,5120,450,5040,450C4960,450,4880,450,4800,450C4720,450,4640,450,4560,450C4480,450,4400,450,4320,450C4240,450,4160,450,4080,450C4000,450,3920,450,3840,450C3760,450,3680,450,3600,450C3520,450,3440,450,3360,450C3280,450,3200,450,3120,450C3040,450,2960,450,2880,450C2800,450,2720,450,2640,450C2560,450,2480,450,2400,450C2320,450,2240,450,2160,450C2080,450,2000,450,1920,450C1840,450,1760,450,1680,450C1600,450,1520,450,1440,450C1360,450,1280,450,1200,450C1120,450,1040,450,960,450C880,450,800,450,720,450C640,450,560,450,480,450C400,450,320,450,240,450C160,450,80,450,40,450L0,450Z"
    ></path>
</svg>